<?xml version="1.0" encoding="UTF-8"?><svg id="Capa_1" xmlns="http://www.w3.org/2000/svg" viewBox="0 0 2206.95 436.68"><defs><style>.cls-1{fill:#1d1d1b;}</style></defs><g><g><path class="cls-1" d="M87.18,361.29v-54.03h34.11l18.38,34.66c21.26-7.15,42.82-13.47,64.58-19.1l-15.8-28.94,3.34-2c26.65-15.96,41.92-43.17,41.92-74.64,0-55.25-40.63-93.84-98.8-93.84H19.08V391.89h.21c22.21-11.05,44.84-21.3,67.89-30.59Zm0-178.28h38.86c22.84,0,37.6,13.34,37.6,33.99s-15.11,34.16-37.6,34.16h-38.86v-68.15Z"/><path class="cls-1" d="M310.06,301.72v-28.48l16.98,26.16c.37-.05,.75-.11,1.12-.15,24.06-2.95,48.26-4.85,72.53-5.99l-27.09-39.9,.64-.97,85.29-128.98h-78.61l-70.85,112.99V123.4h-68.1v190.41c22.52-4.86,45.24-8.87,68.1-12.09Z"/><path class="cls-1" d="M416.74,316.9c-25.84-.66-51.74-.31-77.61,1.12l47.96,73.87h80.57l-50.92-74.99Z"/><path class="cls-1" d="M21.84,391.89H87.18v-25.09c-22.06,7.52-43.84,15.94-65.34,25.09Z"/><path class="cls-1" d="M241.96,328.4v63.49h68.1v-71.84c-22.77,1.95-45.49,4.73-68.1,8.35Z"/><path class="cls-1" d="M143.71,349.53l22.46,42.35h75.8l-31.59-57.86c-22.38,4.37-44.62,9.5-66.67,15.5Z"/></g><path class="cls-1" d="M144.02,74.63c12.36-11.58,26.21-21.43,40.63-30.11,3.68-2.05,7.2-4.37,11-6.19l11.3-5.6c7.74-3.27,15.41-6.7,23.43-9.19,15.87-5.35,32.24-9.24,48.84-10.97,66.3-7.82,134.96,13.26,183.9,56.89,24.55,21.63,44.4,48.29,58.01,77.65,13.65,29.35,20.98,61.39,21.45,93.43l.23,6c.02,2-.23,4-.33,6l-.78,11.98-.38,5.98-.81,5.94c-.47,3.97-1.23,7.89-1.97,11.81-2.98,15.67-7.64,30.97-13.88,45.55-11.23,26.69-27.78,50.89-47.98,71.27l21.46,31.61c25.06-26.06,44.76-57.09,57.15-90.78,6.36-17.02,10.85-34.68,13.41-52.56,.64-4.47,1.27-8.94,1.6-13.44l.59-6.73,.14-6.76,.25-13.51c0-2.25,.16-4.5,.03-6.74l-.54-6.73c-2.19-35.91-12.07-71.16-28.57-102.74-16.47-31.61-39.48-59.57-67.04-81.67C420.13,10.39,346.29-8.07,277.91,3.25c-17.15,2.6-33.89,7.4-49.95,13.66-8.12,2.94-15.83,6.83-23.59,10.53l-11.29,6.26c-3.79,2.03-7.28,4.57-10.93,6.83-14.27,9.51-27.83,20.14-39.77,32.4-11.99,12.19-22.74,25.5-32.1,39.71,10.01-13.77,21.32-26.5,33.73-38.01Z"/></g><g><g><path class="cls-1" d="M695.32,123.4c21.76,0,35.33,9.47,35.33,24.73,0,10.75-6.5,19.08-17.1,21.77,12.72,2.4,20.63,12.01,20.63,25.01,0,16.96-14.27,27.42-37.31,27.42h-47.06V123.4h45.51Zm-23.18,39.85h22.04c8.34,0,13.57-4.1,13.57-11.02s-5.23-10.6-13.57-10.6h-22.04v21.62Zm0,40.85h22.04c10.6,0,16.96-4.38,16.96-12.02,0-7.21-6.36-11.59-16.96-11.59h-22.04v23.61Z"/><path class="cls-1" d="M840.41,222.33h-22.33v-31.37l-36.6-67.55h22.47l25.3,44.37,24.73-44.37h22.47l-36.04,66.98v31.94Z"/><path class="cls-1" d="M1068.29,194.06h-22.75v28.27h-22.33V123.4h42.96c25.86,0,40.56,12.43,40.56,34.34,0,15.26-6.5,26.28-18.51,31.94l21.06,32.65h-25.29l-15.69-28.27Zm-2.12-18.65c12.29,0,19.36-5.66,19.36-16.96s-7.07-16.53-19.36-16.53h-20.63v33.5h20.63Z"/><path class="cls-1" d="M1190.21,141.92v21.49h47.77v18.51h-47.77v21.91h54.55v18.51h-76.88V123.4h75.32v18.51h-53Z"/><path class="cls-1" d="M1324.14,203.11l-7.77,19.22h-23.03l42.96-98.92h23.03l42.26,98.92h-23.88l-7.77-19.22h-45.79Zm23.03-56.38l-15.68,38.44h31.23l-15.54-38.44Z"/><path class="cls-1" d="M1518.98,202.83v19.5h-64.72V123.4h22.33v79.43h42.4Z"/><path class="cls-1" d="M1661.96,222.33v-66.7l-26.28,56.67h-14.56l-26.29-56.67v66.7h-20.21V123.4h25.01l28.83,60.48,28.69-60.48h24.87v98.92h-20.07Z"/><path class="cls-1" d="M1765.79,203.11l-7.77,19.22h-23.03l42.96-98.92h23.03l42.26,98.92h-23.88l-7.77-19.22h-45.79Zm23.03-56.38l-15.68,38.44h31.23l-15.54-38.44Z"/><path class="cls-1" d="M1940.98,194.06h-22.75v28.27h-22.33V123.4h42.96c25.86,0,40.56,12.43,40.56,34.34,0,15.26-6.5,26.28-18.51,31.94l21.06,32.65h-25.29l-15.69-28.27Zm-2.12-18.65c12.29,0,19.36-5.66,19.36-16.96s-7.07-16.53-19.36-16.53h-20.63v33.5h20.63Z"/><path class="cls-1" d="M2077.18,182.05l-14.27,15.83v24.45h-22.33V123.4h22.33v44.94l41.12-44.94h25.86l-37.17,41.27,39.71,57.66h-26.85l-28.41-40.28Z"/></g><g><path class="cls-1" d="M649.81,391.86v-98.92h22.33v98.92h-22.33Z"/><path class="cls-1" d="M805.67,391.86l-47.91-63.45v63.45h-21.34v-98.92h20.35l48.04,63.6v-63.6h21.2v98.92h-20.35Z"/><path class="cls-1" d="M977.47,391.86v-66.7l-26.28,56.67h-14.56l-26.29-56.67v66.7h-20.21v-98.92h25.01l28.83,60.48,28.69-60.48h24.87v98.92h-20.07Z"/><path class="cls-1" d="M1160.99,342.4c0,28.54-22.9,50.45-53.14,50.45s-53.13-21.76-53.13-50.45,22.9-50.17,53.13-50.17,53.14,21.48,53.14,50.17Zm-83.38,0c0,17.38,13.99,30.95,30.52,30.95s29.96-13.57,29.96-30.95-13.43-30.67-29.96-30.67-30.52,13.28-30.52,30.67Z"/><path class="cls-1" d="M1263.55,292.94c21.76,0,35.33,9.47,35.33,24.73,0,10.75-6.5,19.08-17.1,21.77,12.72,2.4,20.63,12.01,20.63,25.01,0,16.96-14.27,27.42-37.31,27.42h-47.06v-98.92h45.51Zm-23.18,39.85h22.04c8.34,0,13.57-4.1,13.57-11.02s-5.23-10.6-13.57-10.6h-22.04v21.62Zm0,40.85h22.04c10.6,0,16.96-4.38,16.96-12.02,0-7.21-6.36-11.59-16.96-11.59h-22.04v23.61Z"/><path class="cls-1" d="M1361.02,391.86v-98.92h22.33v98.92h-22.33Z"/><path class="cls-1" d="M1512.35,372.36v19.5h-64.72v-98.92h22.33v79.43h42.4Z"/><path class="cls-1" d="M1567.99,391.86v-98.92h22.33v98.92h-22.33Z"/><path class="cls-1" d="M1674.1,372.64l-7.77,19.22h-23.03l42.96-98.92h23.03l42.26,98.92h-23.88l-7.77-19.22h-45.79Zm23.03-56.38l-15.68,38.44h31.23l-15.54-38.44Z"/><path class="cls-1" d="M1849.29,363.6h-22.75v28.27h-22.33v-98.92h42.96c25.86,0,40.56,12.43,40.56,34.34,0,15.26-6.5,26.28-18.51,31.94l21.06,32.65h-25.29l-15.69-28.27Zm-2.12-18.65c12.29,0,19.36-5.66,19.36-16.96s-7.07-16.53-19.36-16.53h-20.63v33.5h20.63Z"/><path class="cls-1" d="M1948.89,391.86v-98.92h22.33v98.92h-22.33Z"/><path class="cls-1" d="M2054.99,372.64l-7.77,19.22h-23.03l42.96-98.92h23.03l42.26,98.92h-23.88l-7.77-19.22h-45.79Zm23.03-56.38l-15.68,38.44h31.23l-15.54-38.44Z"/></g></g></svg>