<?xml version="1.0" encoding="UTF-8"?><svg id="Capa_1" xmlns="http://www.w3.org/2000/svg" viewBox="0 0 841.89 595.28"><defs><style>.cls-1{fill:#1d1d1b;}</style></defs><g><g><path class="cls-1" d="M267.76,326.58v-48.84h30.83l16.61,31.33c19.22-6.46,38.71-12.18,58.38-17.27l-14.28-26.16,3.02-1.81c24.09-14.43,37.9-39.02,37.9-67.47,0-49.94-36.72-84.82-89.31-84.82h-104.7v242.69h.19c20.07-9.99,40.53-19.26,61.37-27.65Zm0-161.15h35.12c20.65,0,33.99,12.06,33.99,30.73s-13.66,30.88-33.99,30.88h-35.12v-61.6Z"/><path class="cls-1" d="M469.22,272.73v-25.75l15.35,23.65c.34-.04,.68-.1,1.01-.14,21.75-2.67,43.63-4.39,65.56-5.41l-24.49-36.07,.58-.88,77.09-116.59h-71.06l-64.05,102.13V111.55h-61.56v172.11c20.36-4.39,40.9-8.01,61.56-10.93Z"/><path class="cls-1" d="M565.66,286.45c-23.36-.6-46.77-.28-70.16,1.01l43.35,66.78h72.83l-46.03-67.79Z"/><path class="cls-1" d="M208.7,354.24h59.06v-22.68c-19.94,6.79-39.63,14.41-59.06,22.68Z"/><path class="cls-1" d="M407.67,296.85v57.39h61.56v-64.94c-20.58,1.77-41.12,4.28-61.56,7.55Z"/><path class="cls-1" d="M318.85,315.95l20.3,38.29h68.52l-28.55-52.3c-20.23,3.95-40.34,8.59-60.26,14.01Z"/></g><path class="cls-1" d="M319.14,67.46c11.17-10.47,23.69-19.37,36.72-27.21,3.33-1.85,6.51-3.95,9.94-5.6l10.21-5.07c7-2.95,13.93-6.06,21.18-8.31,14.34-4.84,29.14-8.35,44.15-9.91,59.93-7.07,121.99,11.99,166.23,51.42,22.19,19.56,40.14,43.65,52.44,70.19,12.34,26.53,18.97,55.5,19.39,84.46l.21,5.42c.02,1.81-.21,3.62-.29,5.42l-.71,10.83-.34,5.41-.73,5.37c-.43,3.59-1.11,7.13-1.78,10.68-2.69,14.17-6.91,27.99-12.55,41.17-10.15,24.13-25.11,46-43.37,64.42l19.4,28.57c22.65-23.56,40.46-51.61,51.66-82.06,5.75-15.38,9.81-31.35,12.12-47.51,.57-4.04,1.14-8.08,1.45-12.15l.54-6.09,.13-6.11,.23-12.21c0-2.03,.14-4.06,.03-6.09l-.49-6.09c-1.98-32.46-10.91-64.32-25.83-92.87-14.89-28.57-35.69-53.84-60.6-73.82C568.72,9.39,501.98-7.29,440.17,2.94c-15.5,2.35-30.63,6.69-45.15,12.34-7.34,2.66-14.31,6.17-21.32,9.52l-10.2,5.66c-3.42,1.84-6.58,4.13-9.88,6.17-12.9,8.6-25.16,18.2-35.95,29.29-10.84,11.02-20.56,23.05-29.02,35.89,9.05-12.44,19.27-23.96,30.49-34.36Z"/></g><g><path class="cls-1" d="M66.57,458.03c10.83,0,17.58,4.71,17.58,12.3,0,5.35-3.23,9.5-8.51,10.83,6.33,1.2,10.27,5.98,10.27,12.45,0,8.44-7.1,13.64-18.57,13.64h-23.41v-49.23h22.64Zm-11.53,19.83h10.97c4.15,0,6.75-2.04,6.75-5.48s-2.6-5.28-6.75-5.28h-10.97v10.76Zm0,20.32h10.97c5.28,0,8.44-2.18,8.44-5.98,0-3.59-3.17-5.77-8.44-5.77h-10.97v11.75Z"/><path class="cls-1" d="M138.77,507.26h-11.11v-15.61l-18.21-33.62h11.18l12.59,22.08,12.3-22.08h11.18l-17.93,33.34v15.89Z"/><path class="cls-1" d="M243.45,493.19h-11.32v14.07h-11.11v-49.23h21.37c12.87,0,20.18,6.19,20.18,17.09,0,7.6-3.23,13.08-9.21,15.9l10.48,16.24h-12.59l-7.81-14.07Zm-1.05-9.28c6.12,0,9.63-2.81,9.63-8.44s-3.52-8.22-9.63-8.22h-10.27v16.67h10.27Z"/><path class="cls-1" d="M304.12,467.25v10.69h23.77v9.21h-23.77v10.9h27.15v9.21h-38.26v-49.23h37.48v9.21h-26.37Z"/><path class="cls-1" d="M370.76,497.69l-3.87,9.57h-11.47l21.38-49.23h11.46l21.03,49.23h-11.88l-3.87-9.57h-22.79Zm11.46-28.06l-7.8,19.13h15.54l-7.74-19.13Z"/><path class="cls-1" d="M467.71,497.56v9.7h-32.21v-49.23h11.11v39.52h21.09Z"/><path class="cls-1" d="M538.86,507.26v-33.19l-13.07,28.2h-7.25l-13.08-28.2v33.19h-10.05v-49.23h12.45l14.34,30.1,14.28-30.1h12.37v49.23h-9.99Z"/><path class="cls-1" d="M590.53,497.69l-3.87,9.57h-11.47l21.38-49.23h11.46l21.03,49.23h-11.88l-3.87-9.57h-22.79Zm11.46-28.06l-7.8,19.13h15.54l-7.74-19.13Z"/><path class="cls-1" d="M677.7,493.19h-11.32v14.07h-11.11v-49.23h21.38c12.87,0,20.18,6.19,20.18,17.09,0,7.6-3.23,13.08-9.21,15.9l10.47,16.24h-12.59l-7.8-14.07Zm-1.05-9.28c6.12,0,9.63-2.81,9.63-8.44s-3.52-8.22-9.63-8.22h-10.27v16.67h10.27Z"/><path class="cls-1" d="M745.47,487.22l-7.1,7.87v12.17h-11.11v-49.23h11.11v22.37l20.47-22.37h12.87l-18.5,20.54,19.76,28.69h-13.36l-14.14-20.04Z"/><path class="cls-1" d="M40.06,591.62v-49.23h11.11v49.23h-11.11Z"/><path class="cls-1" d="M117.62,591.62l-23.84-31.57v31.57h-10.62v-49.23h10.12l23.91,31.65v-31.65h10.55v49.23h-10.12Z"/><path class="cls-1" d="M203.11,591.62v-33.19l-13.08,28.2h-7.24l-13.08-28.2v33.19h-10.05v-49.23h12.44l14.35,30.1,14.27-30.1h12.38v49.23h-9.99Z"/><path class="cls-1" d="M294.43,567.01c0,14.2-11.39,25.1-26.44,25.1s-26.44-10.83-26.44-25.1,11.39-24.97,26.44-24.97,26.44,10.69,26.44,24.97Zm-41.49,0c0,8.65,6.96,15.4,15.19,15.4s14.91-6.75,14.91-15.4-6.68-15.26-14.91-15.26-15.19,6.61-15.19,15.26Z"/><path class="cls-1" d="M345.46,542.4c10.83,0,17.58,4.71,17.58,12.3,0,5.35-3.23,9.5-8.51,10.83,6.33,1.2,10.27,5.98,10.27,12.45,0,8.44-7.1,13.64-18.57,13.64h-23.41v-49.23h22.64Zm-11.53,19.83h10.97c4.15,0,6.75-2.04,6.75-5.48s-2.6-5.28-6.75-5.28h-10.97v10.76Zm0,20.32h10.97c5.28,0,8.44-2.18,8.44-5.98,0-3.59-3.17-5.77-8.44-5.77h-10.97v11.75Z"/><path class="cls-1" d="M393.96,591.62v-49.23h11.11v49.23h-11.11Z"/><path class="cls-1" d="M469.27,581.92v9.7h-32.21v-49.23h11.11v39.52h21.1Z"/><path class="cls-1" d="M496.95,591.62v-49.23h11.11v49.23h-11.11Z"/><path class="cls-1" d="M549.75,582.06l-3.87,9.57h-11.47l21.38-49.23h11.46l21.03,49.23h-11.88l-3.87-9.57h-22.79Zm11.46-28.06l-7.8,19.13h15.54l-7.74-19.13Z"/><path class="cls-1" d="M636.93,577.55h-11.32v14.07h-11.11v-49.23h21.38c12.87,0,20.18,6.19,20.18,17.09,0,7.6-3.23,13.08-9.21,15.9l10.47,16.24h-12.59l-7.8-14.07Zm-1.05-9.28c6.12,0,9.63-2.81,9.63-8.44s-3.52-8.22-9.63-8.22h-10.27v16.67h10.27Z"/><path class="cls-1" d="M686.49,591.62v-49.23h11.11v49.23h-11.11Z"/><path class="cls-1" d="M739.29,582.06l-3.87,9.57h-11.47l21.38-49.23h11.46l21.03,49.23h-11.88l-3.87-9.57h-22.79Zm11.46-28.06l-7.8,19.13h15.54l-7.74-19.13Z"/></g></svg>