<?xml version="1.0" encoding="utf-8"?>
<!-- Generator: Adobe Illustrator 26.3.1, SVG Export Plug-In . SVG Version: 6.00 Build 0)  -->
<svg version="1.1" id="Capa_1" xmlns="http://www.w3.org/2000/svg" xmlns:xlink="http://www.w3.org/1999/xlink" x="0px" y="0px"
	 viewBox="0 0 577.9 399.3" style="enable-background:new 0 0 577.9 399.3;" xml:space="preserve">
<style type="text/css">
	.st0{fill:#1D1D1B;}
</style>
<g>
	<g>
		<path class="st0" d="M135.8,326.6v-48.8h30.8l16.6,31.3c19.2-6.5,38.7-12.2,58.4-17.3l-14.3-26.2l3-1.8
			c24.1-14.4,37.9-39,37.9-67.5c0-49.9-36.7-84.8-89.3-84.8H74.2v242.7h0.2C94.5,344.3,114.9,335,135.8,326.6L135.8,326.6z
			 M135.8,165.5h35.1c20.6,0,34,12.1,34,30.7s-13.7,30.9-34,30.9h-35.1V165.5L135.8,165.5z"/>
		<path class="st0" d="M337.2,272.8V247l15.4,23.6c0.3,0,0.7-0.1,1-0.1c21.8-2.7,43.6-4.4,65.6-5.4l-24.5-36.1l0.6-0.9l77.1-116.6
			h-71.1l-64,102.1V111.6h-61.6v172.1C296,279.3,316.6,275.7,337.2,272.8L337.2,272.8z"/>
		<path class="st0" d="M433.7,286.5c-23.4-0.6-46.8-0.3-70.2,1l43.4,66.8h72.8L433.7,286.5L433.7,286.5z"/>
		<path class="st0" d="M76.7,354.3h59.1v-22.7C115.8,338.4,96.1,346,76.7,354.3L76.7,354.3z"/>
		<path class="st0" d="M275.7,296.9v57.4h61.6v-64.9C316.7,291.1,296.1,293.6,275.7,296.9L275.7,296.9z"/>
		<path class="st0" d="M186.9,316l20.3,38.3h68.5L247.1,302C226.9,305.9,206.8,310.6,186.9,316L186.9,316z"/>
	</g>
	<path class="st0" d="M187.1,67.5c11.2-10.5,23.7-19.4,36.7-27.2c3.3-1.8,6.5-4,9.9-5.6l10.2-5.1c7-3,13.9-6.1,21.2-8.3
		c14.3-4.8,29.1-8.3,44.1-9.9c59.9-7.1,122,12,166.2,51.4c22.2,19.6,40.1,43.6,52.4,70.2c12.3,26.5,19,55.5,19.4,84.5l0.2,5.4
		c0,1.8-0.2,3.6-0.3,5.4l-0.7,10.8l-0.3,5.4l-0.7,5.4c-0.4,3.6-1.1,7.1-1.8,10.7c-2.7,14.2-6.9,28-12.5,41.2
		c-10.2,24.1-25.1,46-43.4,64.4l19.4,28.6c22.7-23.6,40.5-51.6,51.7-82.1c5.8-15.4,9.8-31.4,12.1-47.5c0.6-4,1.1-8.1,1.5-12.1
		l0.5-6.1l0.1-6.1l0.2-12.2c0-2,0.1-4.1,0-6.1l-0.5-6.1c-2-32.5-10.9-64.3-25.8-92.9c-14.9-28.6-35.7-53.8-60.6-73.8
		C436.7,9.4,370-7.2,308.2,3c-15.5,2.4-30.6,6.7-45.1,12.3c-7.3,2.7-14.3,6.2-21.3,9.5l-10.2,5.7c-3.4,1.8-6.6,4.1-9.9,6.2
		c-12.9,8.6-25.2,18.2-36,29.3c-10.8,11-20.6,23.1-29,35.9C165.7,89.4,175.9,77.9,187.1,67.5L187.1,67.5z"/>
</g>
</svg>
