<?xml version="1.0" encoding="UTF-8"?><svg id="Capa_1" xmlns="http://www.w3.org/2000/svg" viewBox="0 0 499.23 394.72"><defs><style>.cls-1{fill:#fff;}</style></defs><g><path class="cls-1" d="M61.55,326.58v-48.84h30.83l16.61,31.33c19.22-6.46,38.71-12.18,58.38-17.27l-14.28-26.16,3.02-1.81c24.09-14.43,37.9-39.02,37.9-67.47,0-49.94-36.72-84.82-89.31-84.82H0v242.69H.19c20.07-9.99,40.53-19.26,61.37-27.65h-.01Zm0-161.15h35.12c20.65,0,33.99,12.06,33.99,30.73s-13.66,30.88-33.99,30.88H61.55v-61.6h0Z"/><path class="cls-1" d="M263.01,272.73v-25.75l15.35,23.65c.34-.04,.68-.1,1.01-.14,21.75-2.67,43.63-4.39,65.56-5.41l-24.49-36.07,.58-.88,77.09-116.59h-71.06l-64.05,102.13V111.55h-61.56v172.11c20.36-4.39,40.9-8.01,61.56-10.93h0Z"/><path class="cls-1" d="M359.45,286.45c-23.36-.6-46.77-.28-70.16,1.01l43.35,66.78h72.83l-46.03-67.79h0Z"/><path class="cls-1" d="M2.49,354.24H61.55v-22.68c-19.94,6.79-39.63,14.41-59.06,22.68h0Z"/><path class="cls-1" d="M201.46,296.85v57.39h61.56v-64.94c-20.58,1.77-41.12,4.28-61.56,7.55h0Z"/><path class="cls-1" d="M112.64,315.95l20.3,38.29h68.52l-28.55-52.3c-20.23,3.95-40.34,8.59-60.26,14.01h0Z"/></g><path class="cls-1" d="M112.93,67.46c11.17-10.47,23.69-19.37,36.72-27.21,3.33-1.85,6.51-3.95,9.94-5.6l10.21-5.07c7-2.95,13.93-6.06,21.18-8.31,14.34-4.84,29.14-8.35,44.15-9.91,59.93-7.07,121.99,11.99,166.23,51.42,22.19,19.56,40.14,43.65,52.44,70.19,12.34,26.53,18.97,55.5,19.39,84.46l.21,5.42c.02,1.81-.21,3.62-.29,5.42l-.71,10.83-.34,5.41-.73,5.37c-.43,3.59-1.11,7.13-1.78,10.68-2.69,14.17-6.91,27.99-12.55,41.17-10.15,24.13-25.11,46-43.37,64.42l19.4,28.57c22.65-23.56,40.46-51.61,51.66-82.06,5.75-15.38,9.81-31.35,12.12-47.51,.57-4.04,1.14-8.08,1.45-12.15l.54-6.09,.13-6.11,.23-12.21c0-2.03,.14-4.06,.03-6.09l-.49-6.09c-1.98-32.46-10.91-64.32-25.83-92.87-14.89-28.57-35.69-53.84-60.6-73.82C362.51,9.39,295.77-7.29,233.96,2.94c-15.5,2.35-30.63,6.69-45.15,12.34-7.34,2.66-14.31,6.17-21.32,9.52l-10.2,5.66c-3.42,1.84-6.58,4.13-9.88,6.17-12.9,8.6-25.16,18.2-35.95,29.29-10.84,11.02-20.56,23.05-29.02,35.89,9.05-12.44,19.27-23.96,30.49-34.36h0Z"/></svg>